<svg xmlns="http://www.w3.org/2000/svg" xmlns:xlink="http://www.w3.org/1999/xlink" width="500" zoomAndPan="magnify" viewBox="0 0 375 374.999991" height="500" preserveAspectRatio="xMidYMid meet" version="1.0"><defs><g/><clipPath id="58965c94fc"><path d="M 104.078125 64 L 270.578125 64 L 270.578125 244 L 104.078125 244 Z M 104.078125 64 " clip-rule="nonzero"/></clipPath></defs><g clip-path="url(#58965c94fc)"><path fill="#ffffff" d="M 113.453125 155.46875 L 113.453125 205.800781 C 113.453125 226.824219 131.308594 243.925781 153.265625 243.925781 L 221.660156 243.925781 C 243.617188 243.925781 261.472656 226.824219 261.472656 205.800781 L 261.472656 155.46875 C 262.777344 154.789062 263.980469 153.953125 265.070312 152.960938 C 265.882812 152.207031 266.609375 151.378906 267.253906 150.472656 C 267.894531 149.570312 268.4375 148.609375 268.878906 147.589844 C 269.324219 146.574219 269.65625 145.519531 269.882812 144.433594 C 270.105469 143.347656 270.21875 142.25 270.21875 141.140625 C 270.207031 140.589844 270.167969 140.035156 270.105469 139.488281 C 270.039062 138.9375 269.949219 138.390625 269.832031 137.851562 C 269.714844 137.3125 269.570312 136.777344 269.398438 136.25 C 269.230469 135.722656 269.03125 135.207031 268.8125 134.699219 C 268.589844 134.191406 268.34375 133.699219 268.074219 133.214844 C 267.804688 132.730469 267.515625 132.261719 267.199219 131.808594 C 266.882812 131.351562 266.546875 130.914062 266.1875 130.492188 C 265.828125 130.070312 265.449219 129.667969 265.050781 129.285156 C 264.652344 128.898438 264.238281 128.535156 263.804688 128.191406 C 263.371094 127.847656 262.921875 127.527344 262.457031 127.226562 C 261.988281 126.929688 261.511719 126.652344 261.019531 126.398438 C 260.527344 126.148438 260.023438 125.917969 259.507812 125.71875 C 258.992188 125.515625 258.46875 125.335938 257.9375 125.183594 C 257.40625 125.03125 256.867188 124.90625 256.324219 124.808594 C 255.777344 124.710938 255.230469 124.636719 254.679688 124.59375 C 254.128906 124.546875 253.574219 124.527344 253.023438 124.539062 L 249.945312 124.539062 L 262.972656 107.796875 L 261.609375 100.964844 L 248.101562 93.359375 L 257.210938 80.605469 L 257.894531 79.261719 C 258.085938 78.625 258.21875 77.980469 258.300781 77.324219 C 258.378906 76.664062 258.402344 76.007812 258.367188 75.34375 C 258.335938 74.683594 258.246094 74.03125 258.101562 73.382812 C 257.957031 72.738281 257.757812 72.109375 257.507812 71.496094 C 257.253906 70.882812 256.953125 70.296875 256.601562 69.738281 C 256.246094 69.175781 255.851562 68.648438 255.410156 68.15625 C 254.964844 67.664062 254.484375 67.210938 253.964844 66.800781 C 253.445312 66.390625 252.898438 66.027344 252.316406 65.710938 C 251.242188 65.132812 250.109375 64.71875 248.917969 64.46875 C 247.726562 64.222656 246.523438 64.152344 245.308594 64.253906 C 244.097656 64.355469 242.921875 64.632812 241.789062 65.078125 C 240.65625 65.523438 239.609375 66.121094 238.648438 66.871094 L 235.074219 69.695312 L 240.746094 76.847656 L 244.296875 74 C 244.824219 73.589844 245.417969 73.355469 246.082031 73.292969 C 246.746094 73.230469 247.375 73.351562 247.964844 73.65625 C 248.40625 73.902344 248.746094 74.246094 248.992188 74.683594 C 249.238281 75.121094 249.351562 75.59375 249.332031 76.09375 L 240.222656 88.871094 L 226.808594 81.332031 L 220.476562 83.335938 L 207.722656 109.6875 L 166.15625 70.652344 L 159.960938 70.652344 L 123.726562 103.835938 L 123.726562 110.484375 L 138.4375 124.492188 L 121.972656 124.492188 C 119.730469 124.488281 117.570312 124.898438 115.488281 125.726562 C 113.40625 126.554688 111.550781 127.738281 109.921875 129.277344 C 109.109375 130.03125 108.382812 130.859375 107.742188 131.765625 C 107.101562 132.671875 106.558594 133.632812 106.117188 134.648438 C 105.675781 135.664062 105.339844 136.71875 105.113281 137.804688 C 104.886719 138.890625 104.777344 139.988281 104.777344 141.097656 C 104.785156 142.574219 104.988281 144.023438 105.390625 145.445312 C 105.789062 146.867188 106.371094 148.210938 107.136719 149.476562 C 107.898438 150.742188 108.816406 151.882812 109.890625 152.898438 C 110.960938 153.914062 112.148438 154.773438 113.453125 155.46875 Z M 252.382812 205.800781 C 252.382812 221.742188 238.605469 234.816406 221.683594 234.816406 L 153.332031 234.816406 C 136.410156 234.816406 122.632812 221.8125 122.632812 205.800781 L 122.632812 157.699219 L 252.453125 157.699219 Z M 226.464844 91.671875 L 238.992188 98.710938 L 242.476562 101.214844 L 242.75 100.851562 L 252.542969 106.339844 L 238.398438 124.5625 L 210.726562 124.5625 Z M 133.382812 107.25 L 162.988281 80.082031 L 203.574219 118.34375 L 200.636719 124.492188 L 151.488281 124.492188 Z M 116.1875 135.902344 C 116.96875 135.167969 117.859375 134.601562 118.859375 134.210938 C 119.859375 133.816406 120.898438 133.621094 121.972656 133.625 L 253.023438 133.625 C 253.53125 133.605469 254.039062 133.640625 254.546875 133.71875 C 255.050781 133.800781 255.542969 133.933594 256.023438 134.109375 C 256.5 134.289062 256.960938 134.511719 257.394531 134.78125 C 257.832031 135.046875 258.234375 135.355469 258.609375 135.703125 C 258.988281 136.050781 259.324219 136.429688 259.625 136.84375 C 259.925781 137.257812 260.183594 137.699219 260.394531 138.164062 C 260.609375 138.628906 260.777344 139.109375 260.898438 139.605469 C 261.015625 140.105469 261.085938 140.609375 261.105469 141.117188 C 261.105469 142.105469 260.90625 143.050781 260.511719 143.953125 C 260.113281 144.855469 259.554688 145.640625 258.828125 146.3125 C 257.875 147.203125 256.773438 147.839844 255.527344 148.226562 C 254.71875 148.480469 253.890625 148.609375 253.042969 148.613281 L 121.972656 148.613281 C 121.082031 148.609375 120.21875 148.464844 119.375 148.179688 C 118.601562 147.960938 117.878906 147.625 117.210938 147.175781 C 116.546875 146.726562 115.964844 146.1875 115.472656 145.550781 C 114.976562 144.914062 114.59375 144.21875 114.324219 143.460938 C 114.054688 142.703125 113.90625 141.921875 113.886719 141.117188 C 113.890625 140.128906 114.09375 139.179688 114.492188 138.269531 C 114.890625 137.363281 115.457031 136.574219 116.1875 135.902344 Z M 116.1875 135.902344 " fill-opacity="1" fill-rule="nonzero"/></g><path fill="#ffffff" d="M 143.960938 105.933594 L 162.105469 88.425781 L 168.429688 94.980469 L 150.289062 112.488281 Z M 143.960938 105.933594 " fill-opacity="1" fill-rule="nonzero"/><path fill="#ffffff" d="M 177.976562 177.421875 C 177.964844 176.796875 178.015625 176.171875 178.128906 175.554688 C 178.242188 174.9375 178.414062 174.339844 178.644531 173.753906 C 178.875 173.171875 179.160156 172.617188 179.503906 172.089844 C 179.84375 171.5625 180.234375 171.078125 180.671875 170.625 C 181.105469 170.175781 181.585938 169.773438 182.101562 169.417969 C 182.617188 169.0625 183.164062 168.761719 183.742188 168.515625 C 184.316406 168.265625 184.914062 168.078125 185.527344 167.949219 C 186.140625 167.820312 186.761719 167.75 187.386719 167.742188 C 188.015625 167.738281 188.636719 167.792969 189.253906 167.90625 C 189.871094 168.023438 190.46875 168.199219 191.050781 168.433594 C 191.632812 168.667969 192.1875 168.957031 192.710938 169.300781 C 193.238281 169.644531 193.722656 170.035156 194.167969 170.476562 C 194.617188 170.914062 195.015625 171.394531 195.371094 171.914062 C 195.722656 172.433594 196.019531 172.980469 196.265625 173.558594 C 196.507812 174.136719 196.695312 174.730469 196.820312 175.347656 C 196.945312 175.960938 197.011719 176.582031 197.015625 177.210938 C 197.019531 177.835938 196.960938 178.457031 196.839844 179.074219 C 196.722656 179.691406 196.542969 180.289062 196.304688 180.867188 C 196.070312 181.449219 195.777344 182 195.429688 182.523438 C 195.082031 183.046875 194.6875 183.53125 194.246094 183.976562 C 193.804688 184.421875 193.324219 184.816406 192.800781 185.167969 C 192.28125 185.515625 191.730469 185.8125 191.152344 186.054688 C 190.574219 186.292969 189.976562 186.476562 189.359375 186.597656 C 188.746094 186.722656 188.125 186.785156 187.496094 186.785156 L 182.941406 191.339844 L 182.941406 213 L 192.050781 213 L 192.050781 195.347656 C 193.164062 195.058594 194.238281 194.667969 195.28125 194.175781 C 196.320312 193.6875 197.304688 193.105469 198.238281 192.429688 C 199.167969 191.757812 200.027344 191.003906 200.820312 190.167969 C 201.609375 189.335938 202.316406 188.433594 202.941406 187.46875 C 203.566406 186.503906 204.09375 185.488281 204.527344 184.421875 C 204.960938 183.359375 205.292969 182.261719 205.523438 181.136719 C 205.753906 180.011719 205.878906 178.871094 205.898438 177.722656 C 205.914062 176.574219 205.828125 175.433594 205.632812 174.300781 C 205.4375 173.167969 205.140625 172.0625 204.742188 170.984375 C 204.339844 169.90625 203.84375 168.875 203.253906 167.890625 C 202.660156 166.902344 201.980469 165.980469 201.21875 165.121094 C 200.453125 164.265625 199.617188 163.484375 198.707031 162.78125 C 197.796875 162.078125 196.832031 161.464844 195.808594 160.941406 C 194.785156 160.417969 193.722656 159.992188 192.617188 159.667969 C 191.515625 159.34375 190.394531 159.121094 189.25 159.007812 C 188.105469 158.890625 186.960938 158.882812 185.816406 158.980469 C 184.667969 159.078125 183.542969 159.277344 182.433594 159.585938 C 181.328125 159.894531 180.257812 160.300781 179.226562 160.804688 C 178.195312 161.3125 177.21875 161.910156 176.296875 162.597656 C 175.375 163.285156 174.527344 164.054688 173.75 164.898438 C 172.972656 165.746094 172.277344 166.65625 171.667969 167.632812 C 171.0625 168.609375 170.546875 169.632812 170.132812 170.703125 C 169.714844 171.773438 169.398438 172.875 169.1875 174.003906 C 168.972656 175.132812 168.867188 176.273438 168.867188 177.421875 L 168.867188 181.976562 L 177.976562 181.976562 Z M 177.976562 177.421875 " fill-opacity="1" fill-rule="nonzero"/><path fill="#ffffff" d="M 187.496094 214.910156 C 187.046875 214.910156 186.605469 214.953125 186.164062 215.042969 C 185.722656 215.128906 185.296875 215.257812 184.882812 215.429688 C 184.46875 215.601562 184.074219 215.8125 183.699219 216.0625 C 183.328125 216.3125 182.980469 216.59375 182.664062 216.914062 C 182.347656 217.230469 182.066406 217.574219 181.816406 217.949219 C 181.566406 218.320312 181.355469 218.714844 181.183594 219.128906 C 181.011719 219.542969 180.882812 219.972656 180.796875 220.410156 C 180.707031 220.851562 180.664062 221.296875 180.664062 221.742188 C 180.664062 222.191406 180.707031 222.636719 180.796875 223.078125 C 180.882812 223.515625 181.011719 223.945312 181.183594 224.359375 C 181.355469 224.773438 181.566406 225.167969 181.816406 225.539062 C 182.066406 225.914062 182.347656 226.257812 182.664062 226.574219 C 182.980469 226.890625 183.328125 227.175781 183.699219 227.425781 C 184.074219 227.675781 184.46875 227.882812 184.882812 228.054688 C 185.296875 228.226562 185.722656 228.359375 186.164062 228.445312 C 186.605469 228.53125 187.046875 228.578125 187.496094 228.578125 C 187.945312 228.578125 188.390625 228.53125 188.828125 228.445312 C 189.269531 228.359375 189.695312 228.226562 190.109375 228.054688 C 190.527344 227.882812 190.917969 227.675781 191.292969 227.425781 C 191.664062 227.175781 192.011719 226.890625 192.328125 226.574219 C 192.644531 226.257812 192.929688 225.914062 193.175781 225.539062 C 193.425781 225.167969 193.636719 224.773438 193.808594 224.359375 C 193.980469 223.945312 194.109375 223.515625 194.199219 223.078125 C 194.285156 222.636719 194.328125 222.191406 194.328125 221.742188 C 194.328125 221.296875 194.285156 220.851562 194.199219 220.410156 C 194.109375 219.972656 193.980469 219.542969 193.808594 219.128906 C 193.636719 218.714844 193.425781 218.320312 193.175781 217.949219 C 192.929688 217.574219 192.644531 217.230469 192.328125 216.914062 C 192.011719 216.59375 191.664062 216.3125 191.292969 216.0625 C 190.917969 215.8125 190.527344 215.601562 190.109375 215.429688 C 189.695312 215.257812 189.269531 215.128906 188.828125 215.042969 C 188.390625 214.953125 187.945312 214.910156 187.496094 214.910156 Z M 187.496094 224.019531 C 187.195312 224.019531 186.902344 223.964844 186.625 223.847656 C 186.347656 223.734375 186.101562 223.566406 185.886719 223.355469 C 185.671875 223.140625 185.507812 222.894531 185.390625 222.617188 C 185.277344 222.335938 185.21875 222.046875 185.21875 221.742188 C 185.21875 221.441406 185.277344 221.152344 185.390625 220.871094 C 185.507812 220.59375 185.671875 220.347656 185.886719 220.132812 C 186.101562 219.917969 186.347656 219.753906 186.625 219.640625 C 186.902344 219.523438 187.195312 219.464844 187.496094 219.464844 C 187.796875 219.464844 188.089844 219.523438 188.367188 219.640625 C 188.648438 219.753906 188.894531 219.917969 189.105469 220.132812 C 189.320312 220.347656 189.484375 220.59375 189.601562 220.871094 C 189.714844 221.152344 189.773438 221.441406 189.773438 221.742188 C 189.773438 222.046875 189.714844 222.335938 189.601562 222.617188 C 189.484375 222.894531 189.320312 223.140625 189.105469 223.355469 C 188.894531 223.566406 188.648438 223.734375 188.367188 223.847656 C 188.089844 223.964844 187.796875 224.019531 187.496094 224.019531 Z M 187.496094 224.019531 " fill-opacity="1" fill-rule="nonzero"/><g fill="#ffffff" fill-opacity="1"><g transform="translate(68.404212, 282.207637)"><g><path d="M 1.359375 -14.453125 C 1.359375 -17.296875 1.972656 -19.832031 3.203125 -22.0625 C 4.429688 -24.300781 6.144531 -26.039062 8.34375 -27.28125 C 10.550781 -28.53125 13.050781 -29.15625 15.84375 -29.15625 C 19.269531 -29.15625 22.203125 -28.25 24.640625 -26.4375 C 27.078125 -24.632812 28.707031 -22.171875 29.53125 -19.046875 L 21.796875 -19.046875 C 21.222656 -20.253906 20.410156 -21.171875 19.359375 -21.796875 C 18.304688 -22.429688 17.109375 -22.75 15.765625 -22.75 C 13.609375 -22.75 11.859375 -21.992188 10.515625 -20.484375 C 9.171875 -18.984375 8.5 -16.972656 8.5 -14.453125 C 8.5 -11.929688 9.171875 -9.914062 10.515625 -8.40625 C 11.859375 -6.90625 13.609375 -6.15625 15.765625 -6.15625 C 17.109375 -6.15625 18.304688 -6.46875 19.359375 -7.09375 C 20.410156 -7.726562 21.222656 -8.648438 21.796875 -9.859375 L 29.53125 -9.859375 C 28.707031 -6.734375 27.078125 -4.273438 24.640625 -2.484375 C 22.203125 -0.691406 19.269531 0.203125 15.84375 0.203125 C 13.050781 0.203125 10.550781 -0.414062 8.34375 -1.65625 C 6.144531 -2.90625 4.429688 -4.640625 3.203125 -6.859375 C 1.972656 -9.078125 1.359375 -11.609375 1.359375 -14.453125 Z M 1.359375 -14.453125 "/></g></g></g><g fill="#ffffff" fill-opacity="1"><g transform="translate(97.640128, 282.207637)"><g><path d="M 1.15625 -11.5 C 1.15625 -13.851562 1.597656 -15.914062 2.484375 -17.6875 C 3.367188 -19.46875 4.578125 -20.835938 6.109375 -21.796875 C 7.648438 -22.753906 9.363281 -23.234375 11.25 -23.234375 C 12.863281 -23.234375 14.28125 -22.90625 15.5 -22.25 C 16.71875 -21.59375 17.65625 -20.734375 18.3125 -19.671875 L 18.3125 -22.90625 L 25.328125 -22.90625 L 25.328125 0 L 18.3125 0 L 18.3125 -3.25 C 17.625 -2.175781 16.671875 -1.3125 15.453125 -0.65625 C 14.234375 0 12.816406 0.328125 11.203125 0.328125 C 9.347656 0.328125 7.648438 -0.15625 6.109375 -1.125 C 4.578125 -2.101562 3.367188 -3.488281 2.484375 -5.28125 C 1.597656 -7.070312 1.15625 -9.144531 1.15625 -11.5 Z M 18.3125 -11.453125 C 18.3125 -13.203125 17.828125 -14.582031 16.859375 -15.59375 C 15.890625 -16.613281 14.703125 -17.125 13.296875 -17.125 C 11.898438 -17.125 10.71875 -16.625 9.75 -15.625 C 8.78125 -14.625 8.296875 -13.25 8.296875 -11.5 C 8.296875 -9.75 8.78125 -8.359375 9.75 -7.328125 C 10.71875 -6.304688 11.898438 -5.796875 13.296875 -5.796875 C 14.703125 -5.796875 15.890625 -6.300781 16.859375 -7.3125 C 17.828125 -8.320312 18.3125 -9.703125 18.3125 -11.453125 Z M 18.3125 -11.453125 "/></g></g></g><g fill="#ffffff" fill-opacity="1"><g transform="translate(123.467868, 282.207637)"><g><path d="M 31.78125 -23.15625 C 34.625 -23.15625 36.890625 -22.289062 38.578125 -20.5625 C 40.265625 -18.84375 41.109375 -16.453125 41.109375 -13.390625 L 41.109375 0 L 34.125 0 L 34.125 -12.4375 C 34.125 -13.914062 33.734375 -15.054688 32.953125 -15.859375 C 32.171875 -16.671875 31.097656 -17.078125 29.734375 -17.078125 C 28.359375 -17.078125 27.28125 -16.671875 26.5 -15.859375 C 25.71875 -15.054688 25.328125 -13.914062 25.328125 -12.4375 L 25.328125 0 L 18.359375 0 L 18.359375 -12.4375 C 18.359375 -13.914062 17.96875 -15.054688 17.1875 -15.859375 C 16.40625 -16.671875 15.332031 -17.078125 13.96875 -17.078125 C 12.59375 -17.078125 11.515625 -16.671875 10.734375 -15.859375 C 9.953125 -15.054688 9.5625 -13.914062 9.5625 -12.4375 L 9.5625 0 L 2.546875 0 L 2.546875 -22.90625 L 9.5625 -22.90625 L 9.5625 -20.03125 C 10.28125 -20.988281 11.210938 -21.75 12.359375 -22.3125 C 13.503906 -22.875 14.804688 -23.15625 16.265625 -23.15625 C 17.984375 -23.15625 19.519531 -22.785156 20.875 -22.046875 C 22.226562 -21.304688 23.289062 -20.253906 24.0625 -18.890625 C 24.851562 -20.148438 25.929688 -21.175781 27.296875 -21.96875 C 28.671875 -22.757812 30.164062 -23.15625 31.78125 -23.15625 Z M 31.78125 -23.15625 "/></g></g></g><g fill="#ffffff" fill-opacity="1"><g transform="translate(164.899346, 282.207637)"><g><path d="M 9.5625 -19.671875 C 10.25 -20.734375 11.191406 -21.59375 12.390625 -22.25 C 13.597656 -22.90625 15.007812 -23.234375 16.625 -23.234375 C 18.519531 -23.234375 20.234375 -22.753906 21.765625 -21.796875 C 23.296875 -20.835938 24.503906 -19.46875 25.390625 -17.6875 C 26.285156 -15.914062 26.734375 -13.851562 26.734375 -11.5 C 26.734375 -9.144531 26.285156 -7.070312 25.390625 -5.28125 C 24.503906 -3.488281 23.296875 -2.101562 21.765625 -1.125 C 20.234375 -0.15625 18.519531 0.328125 16.625 0.328125 C 15.039062 0.328125 13.640625 0 12.421875 -0.65625 C 11.203125 -1.3125 10.25 -2.160156 9.5625 -3.203125 L 9.5625 10.921875 L 2.546875 10.921875 L 2.546875 -22.90625 L 9.5625 -22.90625 Z M 19.59375 -11.5 C 19.59375 -13.25 19.101562 -14.625 18.125 -15.625 C 17.15625 -16.625 15.957031 -17.125 14.53125 -17.125 C 13.132812 -17.125 11.953125 -16.613281 10.984375 -15.59375 C 10.015625 -14.582031 9.53125 -13.203125 9.53125 -11.453125 C 9.53125 -9.703125 10.015625 -8.320312 10.984375 -7.3125 C 11.953125 -6.300781 13.132812 -5.796875 14.53125 -5.796875 C 15.925781 -5.796875 17.117188 -6.304688 18.109375 -7.328125 C 19.097656 -8.359375 19.59375 -9.75 19.59375 -11.5 Z M 19.59375 -11.5 "/></g></g></g><g fill="#ffffff" fill-opacity="1"><g transform="translate(190.72708, 282.207637)"><g><path d="M 25.171875 -22.90625 L 25.171875 0 L 18.15625 0 L 18.15625 -3.125 C 17.4375 -2.101562 16.46875 -1.285156 15.25 -0.671875 C 14.03125 -0.0546875 12.679688 0.25 11.203125 0.25 C 9.453125 0.25 7.90625 -0.140625 6.5625 -0.921875 C 5.226562 -1.703125 4.191406 -2.832031 3.453125 -4.3125 C 2.710938 -5.789062 2.34375 -7.53125 2.34375 -9.53125 L 2.34375 -22.90625 L 9.328125 -22.90625 L 9.328125 -10.46875 C 9.328125 -8.9375 9.722656 -7.742188 10.515625 -6.890625 C 11.304688 -6.046875 12.375 -5.625 13.71875 -5.625 C 15.082031 -5.625 16.160156 -6.046875 16.953125 -6.890625 C 17.753906 -7.742188 18.15625 -8.9375 18.15625 -10.46875 L 18.15625 -22.90625 Z M 25.171875 -22.90625 "/></g></g></g><g fill="#ffffff" fill-opacity="1"><g transform="translate(216.349508, 282.207637)"><g><path d="M 11.859375 0.328125 C 9.867188 0.328125 8.09375 -0.0078125 6.53125 -0.6875 C 4.96875 -1.375 3.734375 -2.3125 2.828125 -3.5 C 1.929688 -4.695312 1.425781 -6.035156 1.3125 -7.515625 L 8.25 -7.515625 C 8.332031 -6.722656 8.703125 -6.078125 9.359375 -5.578125 C 10.015625 -5.085938 10.820312 -4.84375 11.78125 -4.84375 C 12.65625 -4.84375 13.332031 -5.015625 13.8125 -5.359375 C 14.289062 -5.703125 14.53125 -6.144531 14.53125 -6.6875 C 14.53125 -7.34375 14.1875 -7.828125 13.5 -8.140625 C 12.820312 -8.460938 11.71875 -8.816406 10.1875 -9.203125 C 8.539062 -9.578125 7.171875 -9.976562 6.078125 -10.40625 C 4.984375 -10.832031 4.035156 -11.503906 3.234375 -12.421875 C 2.441406 -13.335938 2.046875 -14.578125 2.046875 -16.140625 C 2.046875 -17.453125 2.410156 -18.648438 3.140625 -19.734375 C 3.867188 -20.816406 4.9375 -21.671875 6.34375 -22.296875 C 7.75 -22.921875 9.425781 -23.234375 11.375 -23.234375 C 14.25 -23.234375 16.515625 -22.519531 18.171875 -21.09375 C 19.828125 -19.675781 20.78125 -17.789062 21.03125 -15.4375 L 14.53125 -15.4375 C 14.425781 -16.226562 14.078125 -16.859375 13.484375 -17.328125 C 12.898438 -17.796875 12.128906 -18.03125 11.171875 -18.03125 C 10.347656 -18.03125 9.71875 -17.867188 9.28125 -17.546875 C 8.84375 -17.234375 8.625 -16.804688 8.625 -16.265625 C 8.625 -15.609375 8.972656 -15.113281 9.671875 -14.78125 C 10.367188 -14.457031 11.457031 -14.128906 12.9375 -13.796875 C 14.632812 -13.359375 16.015625 -12.925781 17.078125 -12.5 C 18.148438 -12.070312 19.085938 -11.382812 19.890625 -10.4375 C 20.703125 -9.5 21.117188 -8.238281 21.140625 -6.65625 C 21.140625 -5.3125 20.765625 -4.113281 20.015625 -3.0625 C 19.265625 -2.007812 18.179688 -1.179688 16.765625 -0.578125 C 15.359375 0.0234375 13.722656 0.328125 11.859375 0.328125 Z M 11.859375 0.328125 "/></g></g></g><g fill="#ffffff" fill-opacity="1"><g transform="translate(237.212798, 282.207637)"><g><path d="M 19.34375 -28.625 L 19.34375 -25.578125 L 6.90625 -25.578125 L 6.90625 -15.9375 L 17 -15.9375 L 17 -12.890625 L 6.90625 -12.890625 L 6.90625 0 L 3.15625 0 L 3.15625 -28.625 Z M 19.34375 -28.625 "/></g></g></g><g fill="#ffffff" fill-opacity="1"><g transform="translate(255.854598, 282.207637)"><g><path d="M 5.09375 -26.15625 C 4.382812 -26.15625 3.78125 -26.398438 3.28125 -26.890625 C 2.789062 -27.390625 2.546875 -27.992188 2.546875 -28.703125 C 2.546875 -29.410156 2.789062 -30.007812 3.28125 -30.5 C 3.78125 -31 4.382812 -31.25 5.09375 -31.25 C 5.78125 -31.25 6.363281 -31 6.84375 -30.5 C 7.320312 -30.007812 7.5625 -29.410156 7.5625 -28.703125 C 7.5625 -27.992188 7.320312 -27.390625 6.84375 -26.890625 C 6.363281 -26.398438 5.78125 -26.15625 5.09375 -26.15625 Z M 6.90625 -22.5 L 6.90625 0 L 3.15625 0 L 3.15625 -22.5 Z M 6.90625 -22.5 "/></g></g></g><g fill="#ffffff" fill-opacity="1"><g transform="translate(263.902281, 282.207637)"><g><path d="M 14.125 -22.90625 C 16.863281 -22.90625 19.082031 -22.078125 20.78125 -20.421875 C 22.476562 -18.765625 23.328125 -16.378906 23.328125 -13.265625 L 23.328125 0 L 19.625 0 L 19.625 -12.734375 C 19.625 -14.972656 19.0625 -16.6875 17.9375 -17.875 C 16.820312 -19.070312 15.289062 -19.671875 13.34375 -19.671875 C 11.375 -19.671875 9.804688 -19.050781 8.640625 -17.8125 C 7.484375 -16.582031 6.90625 -14.789062 6.90625 -12.4375 L 6.90625 0 L 3.15625 0 L 3.15625 -22.5 L 6.90625 -22.5 L 6.90625 -19.296875 C 7.632812 -20.453125 8.632812 -21.34375 9.90625 -21.96875 C 11.1875 -22.59375 12.59375 -22.90625 14.125 -22.90625 Z M 14.125 -22.90625 "/></g></g></g><g fill="#ffffff" fill-opacity="1"><g transform="translate(288.128578, 282.207637)"><g><path d="M 1.765625 -11.328125 C 1.765625 -13.628906 2.226562 -15.648438 3.15625 -17.390625 C 4.09375 -19.128906 5.375 -20.476562 7 -21.4375 C 8.625 -22.394531 10.453125 -22.875 12.484375 -22.875 C 14.234375 -22.875 15.859375 -22.46875 17.359375 -21.65625 C 18.867188 -20.851562 20.019531 -19.796875 20.8125 -18.484375 L 20.8125 -30.390625 L 24.59375 -30.390625 L 24.59375 0 L 20.8125 0 L 20.8125 -4.234375 C 20.070312 -2.890625 18.976562 -1.785156 17.53125 -0.921875 C 16.082031 -0.0546875 14.382812 0.375 12.4375 0.375 C 10.4375 0.375 8.625 -0.117188 7 -1.109375 C 5.375 -2.097656 4.09375 -3.476562 3.15625 -5.25 C 2.226562 -7.03125 1.765625 -9.054688 1.765625 -11.328125 Z M 20.8125 -11.296875 C 20.8125 -12.992188 20.46875 -14.46875 19.78125 -15.71875 C 19.101562 -16.976562 18.179688 -17.941406 17.015625 -18.609375 C 15.859375 -19.285156 14.582031 -19.625 13.1875 -19.625 C 11.789062 -19.625 10.515625 -19.296875 9.359375 -18.640625 C 8.210938 -17.984375 7.296875 -17.023438 6.609375 -15.765625 C 5.921875 -14.503906 5.578125 -13.023438 5.578125 -11.328125 C 5.578125 -9.609375 5.921875 -8.109375 6.609375 -6.828125 C 7.296875 -5.554688 8.210938 -4.585938 9.359375 -3.921875 C 10.515625 -3.253906 11.789062 -2.921875 13.1875 -2.921875 C 14.582031 -2.921875 15.859375 -3.253906 17.015625 -3.921875 C 18.179688 -4.585938 19.101562 -5.554688 19.78125 -6.828125 C 20.46875 -8.109375 20.8125 -9.597656 20.8125 -11.296875 Z M 20.8125 -11.296875 "/></g></g></g></svg>